<svg height="64" viewBox="0 0 64 64" width="64" xmlns="http://www.w3.org/2000/svg"><g fill="none" fill-rule="evenodd"><path d="m0 0h64v64h-64z"/><path d="m15.025 48.975c-4.5071852-4.4860521-7.0452296-10.5804421-7.05463502-16.9396318-.00935325-6.3591898 2.51070262-12.4610401 7.00463502-16.9603682 4.4905705 4.4867421 7.0094727 10.5770879 7.0000266 16.925.0078222 6.3549368-2.5103279 12.4524574-7.0000266 16.95z" fill="#90b000" fill-rule="nonzero" opacity=".2"/><path d="m49.025 48.975c-4.5071852-4.4860521-7.0452296-10.5804421-7.054635-16.9396318-.0093533-6.3591898 2.5107026-12.4610401 7.004635-16.9603682 9.3285851 9.3649693 9.3285851 24.5100307 0 33.875z" fill="#90b000" fill-rule="nonzero" opacity=".2"/><g stroke="#000" stroke-linecap="round" stroke-linejoin="round" stroke-width="4"><circle cx="32" cy="32" r="24"/><path d="m42.3 28.25c.2070718-1.316096.5248666-2.6123643.95-3.875"/><path d="m43.25 39.625c-.4251334-1.2626357-.7429282-2.558904-.95-3.875"/><path d="m21.7 28.25c-.2070718-1.316096-.5248666-2.6123643-.95-3.875"/><path d="m20.75 39.625c.4251334-1.2626357.7429282-2.558904.95-3.875"/><path d="m46.7 17.725c.705099-.9428078 1.4735409-1.8365392 2.3-2.675"/><path d="m49 48.95c-.8204252-.8439974-1.5885225-1.737328-2.3-2.675"/><path d="m15 48.95c.8204252-.8439974 1.5885225-1.737328 2.3-2.675"/><path d="m17.3 17.725c-.705099-.9428078-1.4735409-1.8365392-2.3-2.675"/></g></g></svg>