<svg height="64" viewBox="0 0 64 64" width="64" xmlns="http://www.w3.org/2000/svg"><g fill="none" fill-rule="evenodd"><path d="m0 0h64v64h-64z"/><path d="m52 21.675v-3.675c0-5.5228475-4.4771525-10-10-10s-10 4.4771525-10 10c0-5.5228475-4.4771525-10-10-10s-10 4.4771525-10 10v3.675c-4.78666799 1.7087855-7.982105 6.2424673-7.982105 11.325s3.19543701 9.6162145 7.982105 11.325v1.675c.0000001 5.5228474 4.4771526 10 10 10s9.9999999-4.4771526 10-10c0 5.5228475 4.4771525 10 10 10s10-4.4771525 10-10v-1.675c4.786668-1.7087855 7.982105-6.2424673 7.982105-11.325s-3.195437-9.6162145-7.982105-11.325z" fill="#90b000" fill-rule="nonzero" opacity=".2"/><g stroke="#000" stroke-linecap="round" stroke-linejoin="round" stroke-width="4"><path d="m32 44v-24"/><path d="m22 36c5.5228475 0 10 4.4771525 10 10s-4.4771525 10-10 10-10-4.4771525-10-10v-1.675"/><path d="m42 36c-5.5228475 0-10 4.4771525-10 10s4.4771525 10 10 10 10-4.4771525 10-10v-1.675"/><path d="m18 45h-2c-5.8569509.0157187-10.86959173-4.1989843-11.85955153-9.9716873-.98995979-5.772703 2.33201313-11.4167074 7.85955153-13.3533127v-3.675c0-5.5228475 4.4771525-10 10-10s10 4.4771525 10 10v28"/><path d="m46 45.0000438h2c5.8569509.0156749 10.8695917-4.1990281 11.8595515-9.9717311s-2.3320131-11.4167074-7.8595515-13.3533127v-3.675c0-5.5228475-4.4771525-10-10-10s-10 4.4771525-10 10"/><path d="m22 21v2c0 3.8659932-3.1340068 7-7 7"/><path d="m42 21v2c0 3.8659932 3.1340068 7 7 7"/></g></g></svg>