<svg height="64" viewBox="0 0 64 64" width="64" xmlns="http://www.w3.org/2000/svg"><g fill="none" fill-rule="evenodd"><path d="m0 0h64v64h-64z"/><path d="m40 10c1.2982213 1.7309617 2 3.8362979 2 6v2h-20v-2c0-2.1637021.7017787-4.2690383 2-6h-10c-1.1045695 0-2 .8954305-2 2v42c0 1.1045695.8954305 2 2 2h36c1.1045695 0 2-.8954305 2-2v-42c0-1.1045695-.8954305-2-2-2z" fill="#90b000" fill-rule="nonzero" opacity=".2"/><g stroke="#000" stroke-linecap="round" stroke-linejoin="round" stroke-width="4"><path d="m40 10h10c1.1045695 0 2 .8954305 2 2v42c0 1.1045695-.8954305 2-2 2h-36c-1.1045695 0-2-.8954305-2-2v-42c0-1.1045695.8954305-2 2-2h10"/><path d="m22 18v-2c0-5.5228475 4.4771525-10 10-10s10 4.4771525 10 10v2z"/></g></g></svg>