<svg height="64" viewBox="0 0 64 64" width="64" xmlns="http://www.w3.org/2000/svg"><g fill="none" fill-rule="evenodd"><path d="m0 0h64v64h-64z"/><path d="m52 29.825v16.175c0 4.418278-3.581722 8-8 8h-24c-4.418278 0-8-3.581722-8-8v-16.175l14-17.825h12z" fill="#90b000" fill-rule="nonzero" opacity=".2"/><path d="m32 48v6" stroke="#000" stroke-linecap="round" stroke-linejoin="round" stroke-width="4"/><circle cx="23" cy="35" fill="#000" fill-rule="nonzero" r="3"/><circle cx="41" cy="35" fill="#000" fill-rule="nonzero" r="3"/><g stroke="#000" stroke-linecap="round" stroke-linejoin="round" stroke-width="4"><path d="m36 44-4 4-4-4"/><path d="m38 12 13.95-3.475c.5314222-.13379273 1.0944653-.04366674 1.5575731.24931987.4631079.29298662.785709.76316609.8924269 1.30068013l4.1 21.9c.375 2.05-2.25 3.25-3.55 1.6z"/><path d="m26 12-13.95-3.475c-.5314222-.13379273-1.0944653-.04366674-1.5575731.24931987-.4631079.29298662-.78570898.76316609-.8924269 1.30068013l-4.1 21.9c-.375 2.05 2.25 3.25 3.55 1.6z"/><path d="m26 12h12"/><path d="m52 29.825v16.175c0 4.418278-3.581722 8-8 8h-24c-4.418278 0-8-3.581722-8-8v-16.175"/></g></g></svg>