<svg height="32" viewBox="0 0 32 32" width="32" xmlns="http://www.w3.org/2000/svg"><g fill="none" fill-rule="evenodd"><path d="m0 0h32v32h-32z"/><path d="m21.5 4.5h-11c-3.3137085 0-6 2.6862915-6 6v11c0 3.3137085 2.6862915 6 6 6h11c3.3137085 0 6-2.6862915 6-6v-11c0-3.3137085-2.6862915-6-6-6zm-5.5 16.5c-2.7614237 0-5-2.2385763-5-5s2.2385763-5 5-5 5 2.2385763 5 5c0 1.3260824-.5267842 2.597852-1.4644661 3.5355339s-2.2094515 1.4644661-3.5355339 1.4644661z" fill="#90b000" fill-rule="nonzero" opacity=".2"/><circle cx="16" cy="16" r="5" stroke="#000" stroke-width="2"/><rect height="23" rx="6" stroke="#000" stroke-linecap="round" stroke-linejoin="round" stroke-width="2" width="23" x="4.5" y="4.5"/><circle cx="22.5" cy="9.5" fill="#000" fill-rule="nonzero" r="1.5"/></g></svg>