<svg height="64" viewBox="0 0 65 64" width="65" xmlns="http://www.w3.org/2000/svg"><g fill="none" fill-rule="evenodd"><path d="m0 0h64v64h-64z"/><g fill="#90b000" fill-rule="nonzero"><circle cx="41" cy="13" opacity=".2" r="5"/><path d="m36.025 39.85 8.25-13.95c.3684651-.5992515 1.0215308-.9643398 1.725-.9643398s1.3565349.3650883 1.725.9643398l14.275 24.1h-20z" opacity=".2"/><path d="m12.6 32h18.8l-7.675-13.075c-.3684651-.5992515-1.0215308-.9643398-1.725-.9643398s-1.3565349.3650883-1.725.9643398z" opacity=".2"/></g><g stroke="#000" stroke-linecap="round" stroke-linejoin="round" stroke-width="4"><circle cx="41" cy="13" r="5"/><path d="m2 50 18.275-31.075c.3684651-.5992515 1.0215308-.9643398 1.725-.9643398s1.3565349.3650883 1.725.9643398l18.275 31.075z"/><path d="m12.6 32h18.8"/><path d="m36.025 39.85 8.25-13.95c.3684651-.5992515 1.0215308-.9643398 1.725-.9643398s1.3565349.3650883 1.725.9643398l14.275 24.1h-20"/></g></g></svg>