<svg height="32" viewBox="0 0 32 32" width="32" xmlns="http://www.w3.org/2000/svg"><g fill="none" fill-rule="evenodd"><path d="m0 0h32v32h-32z"/><path d="m16 11c0-2.75 2.3125-5.0375 5.0625-5 1.9671775.02271104 3.7382077 1.19687468 4.525 3h4.4125l-4.0375 4.0375c-.5407722 8.41739-7.5277581 14.9666634-15.9625 14.962502-4 0-5-1.500002-5-1.500002s4-1.5 6-4.5c0 0-8-4-6-15 0 0 5 5 11 6z" fill="#90b000" fill-rule="nonzero" opacity=".2"/><path d="m16 11c0-2.75 2.3125-5.0375 5.0625-5 1.9671775.02271104 3.7382077 1.19687468 4.525 3h4.4125l-4.0375 4.0375c-.5407722 8.41739-7.5277581 14.9666634-15.9625 14.962502-4 0-5-1.500002-5-1.500002s4-1.5 6-4.5c0 0-8-4-6-15 0 0 5 5 11 6z" stroke="#000" stroke-linecap="round" stroke-linejoin="round" stroke-width="2"/></g></svg>